<svg width="477" height="80" viewBox="0 0 477 80" fill="none" xmlns="http://www.w3.org/2000/svg">
<path d="M438.175 0L475.126 36.9405C476.812 38.6265 476.812 41.3578 475.126 43.0385L438.185 79.9895L431.803 73.613C430.091 71.9007 430.091 69.1274 431.803 67.4151L459.221 39.9921L432.04 12.816C430.196 10.9724 430.196 7.97847 432.04 6.13486L438.175 0Z" fill="#0062AD"/>
<path d="M426.288 6.10855L420.18 0.00520833L383.423 36.7723C381.637 38.5582 381.637 41.4575 383.423 43.2433L420.19 80L426.294 73.8966C428.158 72.032 428.158 69.0066 426.294 67.1472L399.149 40.0078L426.294 12.8527C428.148 10.9881 428.148 7.96792 426.288 6.10855Z" fill="#0062AD"/>
<path d="M258.121 51.9414C258.121 62.4621 263.079 67.1578 272.035 66.8111C272.817 66.8111 273.684 66.7218 274.472 66.5537V58.029H272.208C269.083 58.029 266.819 56.1171 266.819 51.9414V5.24194L258.121 6.9805V51.9414Z" fill="#0062AD"/>
<path d="M157.137 10.1111H166.529L161.051 27.2446H153.834L157.137 10.1111Z" fill="#0062AD"/>
<path d="M115.727 66.118H124.42V42.7183C124.42 35.5907 128.853 30.0231 135.203 30.0231C141.033 30.0231 143.901 34.1988 143.901 39.6771V66.118H152.599V39.7664C152.599 28.7205 145.902 21.8503 136.774 21.8503C130.949 21.8503 126.074 24.3715 122.424 30.1124C119.814 24.8915 115.029 21.8503 109.204 21.8503C103.636 21.8503 98.8563 24.8968 96.2458 30.3751V22.633H87.5478V66.1127H96.2458V42.7183C96.2458 35.5907 100.679 30.0231 107.029 30.0231C112.859 30.0231 115.727 34.1988 115.727 39.6771V66.118Z" fill="#0062AD"/>
<path d="M0 62.2048L3.91307 54.2894C6.78091 56.3746 11.9125 58.7225 15.8256 58.7225C20.6946 58.7225 22.6065 56.3746 22.6065 53.8534C22.6958 50.8963 20.2587 49.767 15.127 48.1125C6.51828 45.502 1.64927 42.4609 1.64927 34.4562C1.64927 27.15 7.21686 21.9343 17.3016 21.9343C22.5172 21.9343 27.3022 23.5888 31.1312 26.2834L27.2182 33.5002C24.9544 32.1083 21.1306 30.0231 16.8709 30.0231C13.1311 30.0231 10.8726 31.499 10.8726 34.3721C10.8726 36.72 12.5271 38.2852 18.0054 39.9397C27.3127 42.7235 31.9191 46.2006 31.9191 53.5068C31.9191 61.7689 25.2222 66.8112 15.9149 66.8112C9.5647 66.8112 3.47712 64.726 0 62.2048Z" fill="#0062AD"/>
<path fill-rule="evenodd" clip-rule="evenodd" d="M70.7032 57.2464C67.746 63.5966 62.0944 66.9004 55.3975 66.9004C44.1783 66.9004 35.2229 58.2916 35.2229 44.3779C35.2229 30.5482 44.1783 21.9395 55.3975 21.9395C62.0944 21.9395 67.746 25.2432 70.7032 31.5934V22.6328H79.4012V66.1178H70.7032V57.2464ZM57.5721 30.1123C49.83 30.1123 44.525 36.2891 44.525 44.4619C44.525 52.5507 49.83 58.7223 57.5721 58.7223C65.2249 58.7223 70.5298 52.3721 70.5298 44.2886C70.5298 36.2839 65.2249 30.1123 57.5721 30.1123Z" fill="#0062AD"/>
<path d="M167.322 54.2894L163.409 62.2048C166.886 64.726 172.974 66.8112 179.324 66.8112C188.631 66.8112 195.328 61.7689 195.328 53.5068C195.328 46.2006 190.722 42.7235 181.414 39.9397C175.936 38.2852 174.281 36.72 174.281 34.3721C174.281 31.499 176.54 30.0231 180.28 30.0231C184.539 30.0231 188.363 32.1083 190.627 33.5002L194.54 26.2834C190.711 23.5888 185.926 21.9343 180.71 21.9343C170.626 21.9343 165.058 27.15 165.058 34.4562C165.058 42.4609 169.927 45.502 178.536 48.1125C183.668 49.767 186.105 50.8963 186.015 53.8534C186.015 56.3746 184.104 58.7225 179.234 58.7225C175.321 58.7225 170.19 56.3746 167.322 54.2894Z" fill="#0062AD"/>
<path d="M215.061 44.3728C215.061 30.5431 224.626 21.9343 237.936 21.9343C244.197 21.9343 249.764 23.9355 254.024 28.1952L248.719 34.7188C245.415 31.415 241.502 30.1071 238.02 30.1071C230.02 30.1071 224.369 34.8921 224.369 44.2835C224.369 53.6749 230.02 58.6332 238.02 58.6332C241.497 58.6332 245.41 57.2413 248.803 53.7641L254.108 60.1984C249.848 64.4581 244.37 66.806 237.931 66.806C224.715 66.8112 215.061 58.2025 215.061 44.3728Z" fill="#0062AD"/>
<path d="M278.128 48.2017V22.6328H286.826V48.895C286.826 54.636 290.481 58.549 296.564 58.549C302.651 58.549 306.302 54.636 306.302 48.895V22.6328H315V48.2017C315 60.1143 307.61 66.8111 296.564 66.8111C285.518 66.8111 278.128 60.1143 278.128 48.2017Z" fill="#0062AD"/>
<path fill-rule="evenodd" clip-rule="evenodd" d="M331.923 57.2464C334.88 63.5966 340.532 66.9004 347.229 66.9004C358.448 66.9004 367.409 58.2864 367.403 44.462C367.403 30.5482 358.448 21.9395 347.229 21.9395C340.532 21.9395 334.88 25.2433 331.923 31.5935V5.24194L323.225 6.9805V66.2018H331.923V57.2464ZM358.101 44.3727C358.101 52.5455 352.796 58.7224 345.054 58.7224C337.401 58.7224 332.096 52.5507 332.096 44.546C332.096 36.4625 337.401 30.1123 345.054 30.1123C352.796 30.1123 358.101 36.2839 358.101 44.3727Z" fill="#0062AD"/>
</svg>
