<svg width="117" height="101" viewBox="0 0 117 101" fill="none" xmlns="http://www.w3.org/2000/svg">
<g clip-path="url(#clip0_2083_129750)">
<path d="M58.14 101L9.76602 55.0888L9.7854 55.084C3.75372 49.25 0.00390625 41.1315 0.00390625 32.1377C0.00390625 14.3858 14.5768 0.000488281 32.5556 0.000488281C42.9475 0.000488281 52.1767 4.81963 58.1405 12.2984C64.0996 4.81963 73.3287 0.000488281 83.7207 0.000488281C101.58 0.000488281 116.083 14.1946 116.275 31.7831V32.4917C116.178 41.3444 112.443 49.3267 106.491 55.084L106.51 55.0888L58.141 101H58.14Z" fill="#C40808"/>
<path d="M107.579 44.3828L107.598 44.3876L59.2287 90.2993L10.8542 44.3876L10.8735 44.3828C5.32702 39.0181 1.71005 31.7216 1.16406 23.5891C4.95588 9.98795 17.5748 0 32.5516 0C42.9436 0 52.1728 4.81914 58.1366 12.2931C64.1005 4.81914 73.3297 0 83.7167 0C100.963 0 115.073 13.2303 116.201 29.9723C114.651 35.5211 111.628 40.4666 107.579 44.3828Z" fill="#EE3E23"/>
</g>
<defs>
<clipPath id="clip0_2083_129750">
<rect width="117" height="101" fill="white"/>
</clipPath>
</defs>
</svg>
