<svg width="42" height="36" viewBox="0 0 42 36" fill="none" xmlns="http://www.w3.org/2000/svg">
<path d="M29.43 0C26.3031 0.0203999 23.2966 1.22411 21 3.37509C19.202 1.70942 16.9642 0.610612 14.56 0.21289C12.1559 -0.184832 9.68951 0.135764 7.46221 1.13551C5.2349 2.13525 3.34309 3.77085 2.01792 5.8425C0.692743 7.91415 -0.00841664 10.3322 7.62485e-05 12.8011V13.0443C7.62485e-05 17.8181 2.76006 22.7744 8.22006 27.7914C11.4728 30.7091 15.0228 33.2675 18.81 35.4234C19.4797 35.8015 20.2335 36 21 36C21.7666 36 22.5204 35.8015 23.19 35.4234C26.9773 33.2675 30.5273 30.7091 33.78 27.7914C39.24 22.7744 42 17.7573 42 13.0443V12.8011C41.9921 9.42463 40.6652 6.18874 38.3096 3.80122C35.954 1.41369 32.7613 0.0688323 29.43 0.0608026V0Z" fill="#E78BBA"/>
</svg>
